<?xml version="1.0" encoding="utf-8"?>
<!-- Generator: Adobe Illustrator 25.2.3, SVG Export Plug-In . SVG Version: 6.00 Build 0)  -->
<svg version="1.1" id="Layer_1" xmlns="http://www.w3.org/2000/svg" xmlns:xlink="http://www.w3.org/1999/xlink" x="0px" y="0px"
	 viewBox="0 0 680 286.5" style="enable-background:new 0 0 680 286.5;" xml:space="preserve">
<style type="text/css">
	.st0{fill:#F90083;}
</style>
<g>
	<path class="st0" d="M398.7,123.1c0.1-0.2,0.2-0.5,0.3-0.6c3.1-4.4,7.4-7,12.5-8.2c5.2-1.3,10.3-0.9,15.3,1.2
		c3.7,1.6,6.6,4.3,8.7,7.8c0.2,0.3,0.4,0.7,0.6,1c0,0.1,0.2,0.1,0.4,0.2c0.3-0.4,0.6-0.8,0.9-1.2c4-5.7,9.4-8.8,16.3-9.5
		c3.7-0.4,7.3-0.2,10.9,1c7.4,2.5,12,7.7,13.9,15.2c0.6,2.5,0.9,5,0.9,7.6c0,12.6,0,25.3,0,37.9c0,2.3-0.8,3.1-3,3.1
		c-2.7,0-5.4,0-8.1,0c-2.6,0-3.3-0.7-3.3-3.2c0-11.6,0-23.2,0-34.7c0-1.6-0.2-3.2-0.5-4.7c-1.2-5.3-5.2-8.5-10.6-8.8
		c-9.1-0.6-14,6.1-14.4,12.6c-0.1,0.9-0.1,1.8-0.1,2.7c0,10.9,0,21.7,0,32.6c0,2.8-0.8,3.7-3.7,3.6c-2.5-0.1-5-0.1-7.5,0
		c-2.8,0.1-3.6-1.1-3.5-3.5c0.1-11.6,0-23.2,0-34.7c0-1.6-0.2-3.2-0.5-4.7c-1.3-5.1-4.9-8.1-10.2-8.5c-8.2-0.7-13.8,5.2-14.7,11.4
		c-0.1,0.9-0.2,1.8-0.2,2.7c0,11.1,0,22.3,0,33.4c0,0.4,0,0.9,0,1.3c-0.1,1.6-0.9,2.6-2.5,2.6c-3.3,0-6.6,0-9.8,0
		c-1.6,0-2.4-0.9-2.5-2.5c0-0.4,0-0.8,0-1.2c0-19,0-38,0-57c0-3.1,0.6-3.6,3.6-3.6c2.7,0,5.3,0,8,0c1.9,0,2.7,0.8,2.7,2.7
		c0,2,0,4,0,6.1C398.4,122.9,398.6,123,398.7,123.1z"/>
	<path class="st0" d="M506.5,173c0,1.1,0,1.9,0,2.6c0,1.8-0.9,2.7-2.7,2.7c-3,0-6,0-9,0c-1.7,0-2.5-0.9-2.6-2.6c0-0.4,0-0.8,0-1.2
		c0-26.5,0-53.1,0-79.6c0-0.5,0-1.1,0-1.6c0.2-1.4,1-2.2,2.4-2.2c3.1,0,6.3,0,9.4,0c1.5,0,2.3,0.9,2.4,2.4c0,0.4,0,0.8,0,1.2
		c0,7.6,0,15.1,0,22.7c0,0.5,0,1,0,1.8c0.8-0.5,1.3-0.7,1.7-1c5.5-3.4,11.6-5.2,18.1-4.7c13.5,1,22.9,8.1,27.9,20.6
		c5.4,13.7,1.1,29.6-11,38.6c-10.2,7.5-23.8,8.1-34.7,1.5C508,173.9,507.4,173.6,506.5,173z M542.6,147.3c0-3.9-0.6-6.7-1.8-9.4
		c-3-6.6-9.7-11.2-17.4-10.6c-8.2,0.6-16.4,7.8-16.9,17.8c-0.3,5.9,1.9,10.9,6.2,15c7.2,6.8,18.2,6.3,24.8-1
		C540.9,155.5,542.5,151.1,542.6,147.3z"/>
	<path class="st0" d="M37.5,144.1c-0.2-18.6,15.4-34,34.1-34c17.8,0.1,33.9,14.5,33.8,34.1c0,18.7-15.3,33.9-34.1,33.9
		C52,178.1,37.3,162.1,37.5,144.1z M52.7,144.1c0,10.3,8.3,18.8,18.6,18.8c10.4,0,18.9-8.4,18.9-18.6c0-10.3-8.4-18.8-18.7-18.9
		C61.2,125.3,52.8,133.7,52.7,144.1z"/>
	<path class="st0" d="M328.1,154.9c0.2,0.5,0.4,0.9,0.6,1.2c3.8,6,9.3,9.1,16.4,9c3.7,0,6.9-1.5,9.8-3.8c0.8-0.7,1.6-1.4,2.4-2.1
		c1.1-1,2-1.1,3.3-0.3c2.2,1.2,4.4,2.6,6.7,3.7c1.9,1,2.5,2.7,0.9,4.5c-4.6,5.3-10.1,8.9-16.9,10.6c-18.8,4.7-35.6-7.7-38.6-25.3
		c-3.1-18.5,8.4-34.3,24.7-38.1c11-2.6,20.5,0.4,28.6,8.1c3.3,3.1,5.8,6.8,7.3,11.2c1.4,4-0.1,7.3-4.1,8.8c-1.5,0.6-3.1,1-4.7,1.5
		c-11.7,3.5-23.5,7-35.2,10.5C329,154.6,328.6,154.7,328.1,154.9z M326.3,142.8c1.1,0,29.8-8.7,31.1-9.4c-2.4-3.8-9.8-7.5-17.4-5.5
		C333,129.7,326.3,136.9,326.3,142.8z"/>
	<path class="st0" d="M237.9,143.9c-0.1,19.5-11.1,37-28.6,45c-6.5,3-13.4,4.4-20.6,4.4c-4.5,0-8.9-0.6-13.3-1.6
		c-4.7-1-9.5-1.4-14.4-1.7c-3.5-0.2-6.2-2.8-6.5-6.4c-0.3-3.5,2-6.7,5.5-7.3c1.6-0.3,3.4-0.1,5,0c6,0.3,11.9,1.6,17.9,2.6
		c20.7,3.2,37.2-10.4,40.4-28.5c2.6-14.5-3.6-28.9-15.5-36.8c-2.7-1.8-3.9-4.6-3.2-7.5c1.1-4.8,6.4-7,10.6-4.3
		c4.2,2.7,7.9,6,11.1,9.9c6.2,7.5,9.9,16,11.1,25.7C237.6,139.6,237.7,141.7,237.9,143.9z"/>
	<path class="st0" d="M70.8,208.2C46,208,23.1,193.9,12.3,172.1c-4.1-8.2-6.2-16.9-6.4-26c-0.1-1.8,0-3.6,0.1-5.3
		c0.3-3.7,3.4-6.3,7.2-6.2c3.5,0.1,6.5,3,6.6,6.6c0,1.4-0.1,2.8,0,4.2c0.8,18.3,9.2,32.1,24.8,41.6c6.6,4,13.9,6.2,21.5,7
		c7.7,0.8,15-0.5,22.2-2.9c5.8-1.9,11.5-4,17.2-6c1.9-0.7,3.8-1.3,5.8-1.8c3.4-0.9,6.8,0.7,8.2,3.8c1.4,3.1,0.4,6.8-2.5,8.7
		c-0.5,0.3-1,0.6-1.5,0.8c-7.3,2.5-14.6,5-21.9,7.4c-5.5,1.9-11.1,3.2-16.9,3.8C74.7,208.1,72.7,208.1,70.8,208.2z"/>
	<path class="st0" d="M158.3,110.7c-14.5,0-28.6-2.6-42.4-6.5c-8-2.3-15.9-5-23.7-8c-5.7-2.2-11.5-3.8-17.6-4.4
		c-3.9-0.4-7.8-0.1-11.7,0.6c-9.2,1.6-17.5,5.4-24.6,11.5c-3,2.6-7.6,2.4-10.1-0.6c-2.5-3-2.1-7.2,0.9-9.8c3.7-3.2,7.7-5.9,12-8.1
		c7.3-3.8,15-6.2,23.2-7.1c8.9-1,17.6,0.1,26.1,2.8c5.1,1.6,10.2,3.6,15.2,5.4c10.1,3.6,20.4,6.6,30.9,8.5c9.1,1.6,18.2,2.5,27.5,2
		c4-0.2,7.3,2.6,7.4,6.5c0.2,4.1-2.7,7.3-6.8,7.4C162.6,110.7,160.5,110.7,158.3,110.7z"/>
	<path class="st0" d="M589.3,145.7c-0.1-15.1,10-28.1,24.7-31.3c10.2-2.2,19.3,0.3,27.3,6.9c1.6,1.3,1.6,2.6,0.1,4.2
		c-1.8,1.8-3.7,3.7-5.6,5.5c-1.3,1.3-2.4,1.3-3.8,0.2c-3.2-2.5-6.8-3.8-10.8-4c-8.4-0.2-15.6,5.4-17.8,13.8
		c-2.6,10.1,3.5,20.7,13.5,23.5c9.6,2.8,19.5-2.9,22.1-12.7c0.2-0.9,0.4-1.8,0.6-2.7c0.3-1.6,1-2.2,2.5-2.2c2.8,0,5.6,0,8.4,0
		c1.8,0,2.7,1,2.6,2.9c-0.3,3.8-1.3,7.4-2.9,10.8c-4.8,9.8-12.6,15.9-23.4,17.7c-12.7,2.1-25.7-4.1-32.5-15.3
		C591,157.7,589.4,151.9,589.3,145.7z"/>
	<path class="st0" d="M276.8,126.8c-0.7,0-1.2-0.1-1.7-0.1c-2.3,0-4.5,0-6.8,0c-1.9,0-2.8-0.8-2.8-2.7c0-2.5,0-4.9,0-7.4
		c0-1.7,0.9-2.6,2.6-2.6c0.9,0,1.8,0,2.8,0c3.8-0.1,6.9-3,7.1-6.8c0.1-2,0.1-4,0.1-5.9c0-0.6,0-1.2,0-1.7c0.1-1.4,0.9-2.2,2.3-2.3
		c2.8,0,5.6,0,8.4,0c1.3,0,2,0.8,2.2,2c0.1,0.4,0,0.9,0,1.3c0,3.9,0,7.7,0,11.6c0,0.5,0,1.1,0,1.8c0.6,0,1.1,0.1,1.6,0.1
		c3.4,0,6.8,0,10.1,0c2.2,0,3,0.8,3,3c0,2.3,0,4.5,0,6.8c0,2.1-0.8,2.9-2.9,2.9c-3.3,0-6.7,0-10,0c-0.6,0-1.1,0-1.8,0.1
		c0,0.6-0.1,1.1-0.1,1.5c0,10.3,0.1,20.7,0,31c0,2.8,2.1,5,4.9,4.9c2.4-0.1,4.7,0,7.1,0c2,0,2.8,0.8,2.8,2.8c0,2.8,0,5.7,0,8.5
		c0,2-0.9,2.9-3,2.9c-3.9,0-7.7,0-11.6,0c-8,0-14.5-6.4-14.5-14.4c0-11.7,0-23.5,0-35.2C276.8,128.1,276.8,127.5,276.8,126.8z"/>
	<path class="st0" d="M188.9,123.8c10.2-0.2,20.4,8.1,20.4,20.4c0,11.2-9.1,20.3-20.4,20.3c-11.3,0-20.5-9.1-20.5-20.4
		C168.5,132,178.6,123.5,188.9,123.8z M188.8,152.2c3.7,0.2,8.2-2.7,8.2-8.1c0-5.1-4.2-8.1-8-8.1c-4.4,0-8.1,3.6-8.2,8
		C180.7,148.5,184.3,152.2,188.8,152.2z"/>
	<path class="st0" d="M565.4,146.1c0-8.4,0-16.9,0-25.3c0-3.8,2.4-6.6,6.1-7.2c3.8-0.6,7.7,2.4,8,6.2c0,0.5,0,1.1,0,1.6
		c0,16.5,0,33.1,0,49.6c0,0.9,0,1.8-0.2,2.6c-0.9,3.6-4.2,5.6-7.9,5.2c-3.4-0.4-6-3.4-6-6.9C565.4,163.2,565.4,154.6,565.4,146.1z"
		/>
	<path class="st0" d="M661.5,146.1c0-8.1,0-16.1,0-24.2c0-0.5,0-1,0-1.4c-0.1-3.4,2.7-6.9,7-7c3.9-0.1,7.1,3,7.1,7
		c0.1,4.4,0,8.9,0,13.3c0,12.3,0,24.6,0,36.9c0,0.9,0,1.8-0.2,2.6c-0.8,3.7-4,5.9-7.9,5.5c-3.4-0.3-6-3.2-6.1-6.8
		c-0.1-3.5,0-6.9,0-10.4C661.5,156.4,661.5,151.2,661.5,146.1z"/>
	<path class="st0" d="M661,98.4c0-4.3,3.3-7.6,7.6-7.6c4.3,0,7.7,3.3,7.7,7.6c0,4.2-3.4,7.7-7.6,7.7C664.4,106,661,102.6,661,98.4z"
		/>
	<path class="st0" d="M572.4,90.7c4.3,0,7.7,3.3,7.7,7.5c0,4.2-3.3,7.7-7.6,7.7c-4.2,0-7.7-3.4-7.7-7.6
		C564.8,94.1,568.2,90.8,572.4,90.7z"/>
	<path class="st0" d="M25.6,117.9c0,3.9-3.2,7-7,6.9c-3.8-0.1-6.8-3.2-6.8-7c0-3.9,3.2-7,7.1-6.9C22.7,111,25.7,114,25.6,117.9z"/>
	<path class="st0" d="M136.9,191.5c-3.9,0-7-3.1-7-7c0-3.8,3.1-6.9,6.9-6.9c3.8,0,7,3.1,7,6.9C143.9,189.2,140.1,191.6,136.9,191.5z
		"/>
	<path class="st0" d="M182,100.9c0-3.8,3.1-6.9,6.9-6.9c3.9,0,6.9,3.1,6.9,7c0,3.8-3.1,6.9-6.9,6.9
		C184.5,107.9,181.8,104.2,182,100.9z"/>
</g>
</svg>
